<svg id="Layer_1" data-name="Layer 1" xmlns="http://www.w3.org/2000/svg" viewBox="0 0 200 200"><defs><style>.cls-1{fill:#f15a35;stroke:#231f20;stroke-miterlimit:10;}.cls-2{fill:#231f20;}</style></defs><path class="cls-1" d="M29.08623,110.9982S13.37158,99.22625,15.62215,85.699,30.15734,55.97567,30.15734,55.97567s9.68094-17.77055,47.92171-26.18338S156.8385,51.17984,156.8385,51.17984s5.48648,4.81625,3.64847,5.25581-2.19546,1.25745-4.15213.20078S124.052,32.59608,87.59219,38.6604c-41.97693,6.982-57.2841,38.83675-56.03592,46.58729.46205,2.86913,11.26148.47937,11.26148.47937s6.08378-2.29571,20.892,1.40481,18.48094,5.55752,18.48094,5.55752L94.9483,98.31526s16.95751,10.48447,34.97211,3.21676l3.98494-4.10311,6.16662-2.29309,7.66154-2.37035L158.517,89.996l2.24827-.30225s4.63752-5.07753,10.64356-2.27635,8.8638,2.89127,8.8638,2.89127,12.08257,3.36585,11.67348,8.45229-.73592,7.56363-3.9401,10.572S178.79361,117.5,178.79361,117.5l-9.38647,5.79845s-2.96351,3.26469-9.14471,2.07485-16.37193,6.44887-16.37193,6.44887l-15.90234,7.3343a27.41026,27.41026,0,0,1-14.33583,1.04059c-8.28563-1.50493-11.38818-1.97585-11.38818-1.97585l9.92525,12.87466,3.99169-.37167s1.13-.3375,7.15955,1.71818,5.60978,3.53493,5.60978,3.53493.19367,1.74734-2.88518.77967-5.288-1.90792-5.288-1.90792-4.83011-.64976-3.47227,3.62177l8.55155,8.85138a2.50013,2.50013,0,0,1,.91175,2.6406c-.42758,1.72776-3.58368-.73484-3.58368-.73484l-7.60846-7.20479s-3.86636-3.60435-5.19895-.78575c-.14383.61733-.22608,3.2266-.22608,3.2266s-.06659,2.11226-.91676,1.46359a15.78726,15.78726,0,0,1-2.04568-2.17884l-.80209-6.11962-4.59638-4.37361-9.17937-12.35365-3.35368-4.08569s-25.528-6.899-43.10392-13.54741l-3.32735-.9755-11.09073,4.62536s-6.13528,1.29909-5.17869,10.40856l3.6246,7.328,3.66377,6.08545s1.92731,1.98855,1.29376,4.33169-4.21027-2.558-4.21027-2.558l-1.49243-1.97485-2.48055-2.19255s-2.17777-1.93426-3.20756,1.14263a45.51513,45.51513,0,0,0-1.54355,7.53817l-1.339,4.995s-.67413,1.6578-1.83689,1.06146a2.76447,2.76447,0,0,1-1.172-2.27568l.20671-10.5031s-.15451-2.98985-1.55456-1.9768-2.55605,4.14815-2.55605,4.14815l-3.1871,4.43919s-1.37709,2.25751-2.92435,2.02218-.6848-1.94939-.6848-1.94939l2.81293-6.37879,2.39123-4.8374.76475-6.50554-.10359-4.60511s-1.08617-10.917,6.56721-18.94661Z"/><ellipse class="cls-1" cx="117.30572" cy="113.0743" rx="2.9835" ry="2.5484" transform="translate(0.59165 226.75919) rotate(-88.1945)"/><ellipse class="cls-1" cx="135.22828" cy="108.72648" rx="1.92684" ry="1.42959" transform="translate(22.29519 240.46201) rotate(-88.1945)"/><ellipse class="cls-1" cx="86.41517" cy="114.52585" rx="2.42409" ry="3.91584" transform="translate(-30.77648 197.28979) rotate(-88.1945)"/><ellipse class="cls-1" cx="64.95167" cy="110.86429" rx="2.42409" ry="2.85919" transform="translate(-47.90399 172.29075) rotate(-88.1945)"/><ellipse class="cls-1" cx="50.48504" cy="100.27178" rx="3.35644" ry="1.989" transform="translate(-51.32757 147.57253) rotate(-88.1945)"/><ellipse class="cls-1" cx="33.29645" cy="97.11809" rx="2.61056" ry="1.86469" transform="translate(-64.82249 127.33814) rotate(-88.1945)"/><path class="cls-2" d="M167.99272,112.93083l3.1611-1.64159a22.02129,22.02129,0,0,0,2.6876-2.40277c.39233-.6095,4.2676-1.23359,4.2676-1.23359s1.09759,4.63644-3.07122,6.68158A5.888,5.888,0,0,1,167.99272,112.93083Z"/></svg>