<svg width="14" height="12" viewBox="0 0 14 12" xmlns="http://www.w3.org/2000/svg">
  <path d="M7.24408 0.410742C7.56952 0.0853049 8.09715 0.0853049 8.42259 0.410742L13.4226 5.41074C13.5789 5.56702 13.6667 5.77899 13.6667 6C13.6667 6.22101 13.5789 6.43297 13.4226 6.58925L8.42259 11.5893C8.09715 11.9147 7.56952 11.9147 7.24408 11.5893C6.91864 11.2638 6.91864 10.7362 7.24408 10.4107L10.8215 6.83333L1.16667 6.83333C0.706432 6.83333 0.333336 6.46024 0.333336 6C0.333336 5.53976 0.706432 5.16667 1.16667 5.16667L10.8215 5.16667L7.24408 1.58925C6.91864 1.26382 6.91864 0.736179 7.24408 0.410742Z" fill="white" />
</svg>
