<svg id="Layer_1" data-name="Layer 1" xmlns="http://www.w3.org/2000/svg" viewBox="0 0 274.33333 96.66667">
  <defs>
    <style>
      .cls-1 {
        fill: #5299d3;
      }

      .cls-2 {
        fill: #f15a35;
      }

      .cls-3 {
        fill: #9e4b9d;
      }

      .cls-4 {
        fill: #231f20;
      }
    </style>
  </defs>
  <g>
    <path class="cls-1" d="M44.39258,10.81169a2.88064,2.88064,0,0,1,3.03027,1.936l.52246,2.189A22.31,22.31,0,0,1,62.46973,9.717c8.67285,0,16.71875,4.88281,16.71875,15.06885V77.905c0,1.51562-1.3584,2.60986-3.23926,2.60986H64.97754c-1.88086,0-3.23926-1.09424-3.23926-2.60986V26.133c0-2.94678-2.6123-5.13526-6.89648-5.13526-4.17969,0-6.6875,1.936-6.89649,4.62988V77.905c0,1.51562-1.3584,2.60986-3.23926,2.60986H33.73438c-1.88086,0-3.23926-1.09424-3.23926-2.60986V13.42106c0-1.51514,1.3584-2.60937,3.23926-2.60937Z"/>
    <path class="cls-1" d="M138.11914,68.47673c0,9.00732-9.4043,13.46923-24.34668,13.46923-14.83789,0-24.34668-4.46191-24.34668-13.46923V23.77555c0-9.00732,9.4043-14.395,24.24219-14.395,14.94238,0,24.45117,5.3877,24.45117,14.395V47.76774c0,1.51514-1.3584,2.60986-3.23926,2.60986H106.876V65.19352c0,2.94629,2.6123,5.13526,6.89648,5.13526,4.38867,0,6.89649-2.1045,6.89649-5.05127V57.78532c0-1.51514,1.35839-2.60938,3.23925-2.60938h10.97168c1.88086,0,3.23926,1.09424,3.23926,2.60938ZM120.669,26.133c0-2.94678-2.61231-5.13526-7.001-5.13526-4.28418,0-6.792,2.10449-6.792,5.05078V38.76042h13.793Z"/>
    <path class="cls-1" d="M192.24316,80.51481c-1.77636,0-3.03027-.92578-3.13476-2.27295l-5.01563-49.58349-4.80664,49.49951c-.10449,1.43115-1.3584,2.35693-3.13476,2.35693h-20.0625c-1.67188,0-2.92578-.92578-3.03028-2.27295L145.74414,13.6735c-.209-1.59912,1.25391-2.86181,3.34375-2.86181h12.0166a2.90532,2.90532,0,0,1,3.13477,2.35693l4.17969,55.813,5.3291-55.813c.10449-1.43115,1.3584-2.35693,3.13476-2.35693h14.62891c1.77637,0,3.03027.92578,3.13476,2.35693l5.32911,55.813,4.07519-55.813a2.90532,2.90532,0,0,1,3.13477-2.35693h12.12109c2.08984,0,3.55274,1.26269,3.34375,2.86181l-7.31445,64.56836c-.10449,1.34717-1.3584,2.27295-3.03028,2.27295Z"/>
    <path class="cls-1" d="M241.87305,80.51481c-1.88086,0-3.23926-1.09424-3.23926-2.60986V22.42887h-8.46387c-1.88086,0-3.23926-1.09472-3.23926-2.60986V13.42106c0-1.51514,1.3584-2.60937,3.23926-2.60937h34.48242c1.88086,0,3.23926,1.09423,3.23926,2.60937V19.819c0,1.51514-1.3584,2.60986-3.23926,2.60986H256.084V77.905c0,1.51562-1.35839,2.60986-3.23925,2.60986Z"/>
  </g>
  <g>
    <path class="cls-2" d="M16.5854,68.06325S10,63.92029,10.45308,58.50542s4.783-12.2069,4.783-12.2069,3.25092-7.33,18.08248-11.88429S65.11221,40.324,65.11221,40.324s2.32193,1.72537,1.6102,1.95817-.82656.56733-1.63335.213-13.52391-8.45448-27.72778-4.88507C21.0081,41.71965,15.98886,54.79321,16.73146,57.814c.27489,1.11823,4.463-.17342,4.463-.17342s2.32874-1.10262,8.29621-.11815A44.40228,44.40228,0,0,1,36.96839,59.122l5.2196,1.81091s7.0348,3.59445,13.91526.14392L57.54487,59.328l2.36154-1.10425,2.94945-1.18292,4.16955-1.44109.87818-.19178a3.776,3.776,0,0,1,4.13017-1.24185,10.43058,10.43058,0,0,0,3.59374.85635s4.88022.9401,4.8825,2.96208-.047,3.01083-1.21555,4.30214-3.37521,3.52217-3.37521,3.52217L72.399,68.40117a3.90049,3.90049,0,0,1-3.54472,1.114c-2.47949-.27081-6.25809,3.07422-6.25809,3.07422l-6.04412,3.40879a10.86113,10.86113,0,0,1-5.62818.87273c-3.32074-.32745-4.56121-.4135-4.56121-.4135l4.33452,4.76493,1.56447-.27536s.43541-.16969,2.88289.448,2.32935,1.21536,2.32935,1.21536.13277.68385-1.11434.40086-2.14984-.58318-2.14984-.58318-1.9285-.101-1.25466,1.5422l3.66241,3.22026a.99066.99066,0,0,1,.44514,1.01349c-.11322.69612-1.439-.17478-1.439-.17478l-3.23691-2.60034s-1.64305-1.29894-2.07854-.14285c-.03692.24844.01464,1.28157.01464,1.28157s.04174.83635-.31491.60755a6.25557,6.25557,0,0,1-.87809-.7946l-.51389-2.391-1.95615-1.57923L42.63662,77.827l-1.45609-1.50555S30.87646,74.4191,23.721,72.35958l-1.3455-.27809-4.23111,2.184s-2.38118.71067-1.71,4.27749l1.66752,2.7773,1.643,2.28534a1.98389,1.98389,0,0,1,.65047,1.669c-.17473.94579-1.74517-.87463-1.74517-.87463l-.653-.73186-1.05028-.786s-.92237-.69375-1.23.55459a18.03546,18.03546,0,0,0-.36679,3.02679l-.36793,2.0158s-.21283.67643-.69125.47837-.53617-.861-.53617-.861L13.49811,83.942s-.15732-1.17581-.67762-.73063a4.516,4.516,0,0,0-.87585,1.72057l-1.1157,1.85585s-.47115.93592-1.08979.89282-.33324-.74782-.33324-.74782l.90545-2.6098.78856-1.98748.09248-2.59388-.18925-1.81538a10.348,10.348,0,0,1,1.98332-7.69418Z"/>
    <ellipse class="cls-3" cx="51.49308" cy="66.04154" rx="1.00979" ry="1.18219" transform="translate(-3.228 2.64891) rotate(-2.85724)"/>
    <ellipse class="cls-3" cx="58.43125" cy="63.74714" rx="0.56647" ry="0.7635" transform="translate(-3.105 2.99191) rotate(-2.85724)"/>
    <ellipse class="cls-3" cx="39.34013" cy="67.60982" rx="1.55163" ry="0.96053" transform="translate(-3.32128 2.04506) rotate(-2.85724)"/>
    <ellipse class="cls-3" cx="30.74554" cy="66.8551" rx="1.13294" ry="0.96053" transform="translate(-3.29435 1.6157) rotate(-2.85724)"/>
    <ellipse class="cls-3" cx="24.691" cy="63.13775" rx="0.78813" ry="1.32997" transform="translate(-3.11657 1.30928) rotate(-2.85724)"/>
    <ellipse class="cls-3" cx="17.80107" cy="62.44592" rx="0.73887" ry="1.03442" transform="translate(-3.09065 0.96497) rotate(-2.85724)"/>
    <path class="cls-4" d="M71.50644,64.35221l1.19554-.75015a8.72636,8.72636,0,0,0,.984-1.0355c.13531-.25335,1.64568-.62465,1.64568-.62465a2.38524,2.38524,0,0,1-.99771,2.73771A2.33309,2.33309,0,0,1,71.50644,64.35221Z"/>
  </g>
  <rect class="cls-1" x="30.48349" y="29.42714" width="17.44694" height="17.3393"/>
</svg>
